<?xml version="1.0" standalone="no"?>
<!DOCTYPE svg PUBLIC "-//W3C//DTD SVG 20010904//EN"
 "http://www.w3.org/TR/2001/REC-SVG-20010904/DTD/svg10.dtd">
<svg version="1.0" xmlns="http://www.w3.org/2000/svg"
 width="570.000000pt" height="570.000000pt" viewBox="0 0 570.000000 570.000000"
 preserveAspectRatio="xMidYMid meet">
<metadata>
Created by potrace 1.11, written by Peter Selinger 2001-2013
</metadata>
<g transform="translate(0.000000,570.000000) scale(0.100000,-0.100000)"
fill="#000000" stroke="none">
<path d="M3236 5683 c-1 -1 -44 -3 -96 -4 -52 -1 -122 -5 -155 -9 -33 -4 -85
-11 -115 -15 -229 -29 -522 -120 -756 -235 -684 -337 -1197 -961 -1453 -1764
-23 -71 -43 -138 -46 -150 -2 -12 -15 -70 -29 -131 -25 -110 -50 -258 -61
-370 -3 -33 -8 -80 -11 -105 -7 -55 -7 -459 0 -515 2 -22 7 -71 11 -110 38
-432 203 -860 490 -1270 299 -428 723 -742 1190 -883 318 -97 736 -138 1090
-109 616 51 1299 358 1750 789 60 57 121 123 137 147 33 53 37 112 10 153 -31
47 -177 187 -207 198 -48 18 -81 2 -183 -87 -406 -358 -711 -471 -1277 -473
-150 -1 -196 2 -333 21 -139 20 -199 35 -329 80 -215 76 -408 203 -579 380
-318 331 -629 1021 -728 1614 -31 185 -42 539 -23 735 81 834 541 1445 1202
1596 96 22 367 27 461 9 234 -46 410 -198 574 -500 195 -356 419 -531 702
-548 280 -16 485 122 543 364 30 130 15 231 -59 384 -109 227 -338 446 -606
579 -198 99 -470 181 -670 202 -36 3 -67 8 -70 9 -12 7 -368 24 -374 18z"/>
</g>
</svg>
